<svg fill="#333333" height="512pt" viewBox="-93 0 512 512.00013" width="512pt" xmlns="http://www.w3.org/2000/svg"><path d="m305 186.992188c-4.390625 0-8.734375.183593-13.035156.523437-4.199219-34.304687-15.414063-67.203125-32.414063-96.355469-21.027343-36.054687-50.996093-66.574218-86.660156-88.261718-6.371094-3.871094-14.433594-3.859376-20.78125 0-35.667969 21.6875-65.632813 52.207031-86.660156 88.261718-17.167969 29.4375-28.253907 62.386719-32.414063 96.355469-4.300781-.339844-8.648437-.523437-13.035156-.523437-11.046875 0-20 8.953124-20 20v142.503906c0 89.605468 72.894531 162.503906 162.5 162.503906 89.601562 0 162.5-72.898438 162.5-162.503906v-142.503906c0-11.046876-8.953125-20-20-20zm-162.5 283.375c-58.066406-9.578126-102.5-60.132813-102.5-120.871094v-120.871094c58.0625 9.578125 102.5 60.132812 102.5 120.871094zm0-227.527344c-18.632812-21.371094-42.746094-37.839844-70.136719-47.1875 1.109375-10.539063 2.988281-20.890625 5.601563-30.992188h64.535156zm0-118.183594h-49.730469c12.070313-24.621094 28.894531-46.792969 49.730469-65.195312zm40-65.195312c20.835938 18.402343 37.65625 40.574218 49.730469 65.195312h-49.730469zm0 105.199218h64.53125c2.617188 10.101563 4.496094 20.453125 5.601562 30.992188-27.386718 9.347656-51.503906 25.816406-70.132812 47.1875zm102.5 184.835938c0 60.738281-44.4375 111.292968-102.5 120.871094v-120.871094c0-60.738282 44.433594-111.292969 102.5-120.871094zm0 0"/></svg>